PathFileType	4	(X/Y/Z)	Patient4_TMGait_0pt5_02_left_41.trc.trc
DataRate	CameraRate	NumFrames	NumMarkers	Units	OrigDataRate	OrigDataStartFrame	OrigNumFrames
76.923076923077	76.923076923077	4	33	mm	76.923076923077	106	       141
Frame#	Time	Sacral			L.Shoulder			Chest			R.Shoulder			Neck			R.ASIS			L.ASIS			R.Thigh.Superior			R.Thigh.Lateral			R.Thigh.Inferior			R.Patella			L.Thigh.Superior			L.Thigh.Lateral			L.Thigh.Inferior			L.Patella			L.Shank.Superior			L.Shank.Lateral			L.Shank.Inferior			R.Shank.Superior			R.Shank.Lateral			R.Shank.Inferior			R.Heel			R.Midfoot.Superior			R.Midfoot.Lateral			R.Toe			L.Heel			L.Midfoot.Lateral			L.Midfoot.Superior			L.Toe			L.Elbow			L.Wrist			R.Elbow			R.Wrist			
		X1	Y1	Z1	X2	Y2	Z2	X3	Y3	Z3	X4	Y4	Z4	X5	Y5	Z5	X6	Y6	Z6	X7	Y7	Z7	X8	Y8	Z8	X9	Y9	Z9	X10	Y10	Z10	X11	Y11	Z11	X12	Y12	Z12	X13	Y13	Z13	X14	Y14	Z14	X15	Y15	Z15	X16	Y16	Z16	X17	Y17	Z17	X18	Y18	Z18	X19	Y19	Z19	X20	Y20	Z20	X21	Y21	Z21	X22	Y22	Z22	X23	Y23	Z23	X24	Y24	Z24	X25	Y25	Z25	X26	Y26	Z26	X27	Y27	Z27	X28	Y28	Z28	X29	Y29	Z29	X30	Y30	Z30	X31	Y31	Z31	X32	Y32	Z32	X33	Y33	Z33	

106	54.255000000000	679.957025576801	1023.236437196196	517.186446479000	872.839569730075	1441.105327397447	330.296413663446	979.800860292114	1361.512809501557	483.951472310922	912.599887570597	1438.297639820054	664.348630018344	885.549516178281	1499.926740830821	481.415759692004	908.497155684757	940.043977409776	618.036400724758	879.470665967536	969.069612230299	346.928502607179	935.436968407387	736.812848351216	584.559826871188	848.317329026893	634.308686737548	643.869935714662	918.176046325025	578.871654596353	559.010922733776	912.780274430924	491.494494513252	562.557727598812	959.092644472070	789.645032204716	375.411821959894	914.294607236394	663.746872877938	298.602524455109	1017.219066834361	600.592135397631	358.216526218743	1032.199301318108	512.995456821099	351.992216592962	974.499568474884	442.139006168529	346.043850389365	843.260993389088	377.987824669665	294.271444998139	849.784531245656	250.017457756005	352.705290699043	882.164232776172	404.912202543059	569.011645165457	807.828385071883	302.579089825194	627.863128057821	847.163230324892	207.963193642873	562.969929365723	706.919968575900	45.311142375499	528.073613523173	879.502614618209	97.346851286764	566.617052325653	789.406086069296	37.173927083894	603.362512530023	997.861756233752	39.741648805836	596.022209353284	671.098447862989	154.390413400111	387.759389814417	736.718356288486	118.948036512975	308.942870273484	837.903387847050	146.529816062139	331.483488784516	934.997932924614	50.364462923116	306.810616101436	795.265650684715	1089.479511094077	227.426152625934	831.121495186037	830.923245338939	216.754954438228	969.510745541808	1100.051337114942	790.751905843983	1159.538511483749	922.202415846089	773.830220867327	
107	54.268000000000	678.379001524092	1023.923032076869	518.331066980755	871.674186382126	1440.684027085520	330.462645940481	979.407253144631	1360.906781845809	483.470092573966	913.774561638555	1438.356991030508	664.177731512319	885.465880466224	1499.707587349682	481.372575898259	906.771323466447	939.528775941169	618.111377594980	877.049682629926	969.394669732407	347.099882226930	931.464720790221	735.877544509146	583.778652257146	843.754351385418	634.294925067711	644.068987055077	912.081875133893	578.187601850712	558.664863513386	905.875437181687	491.184855484159	562.262864595752	957.325076114963	791.282088618936	375.962806845821	913.433457283557	665.028581124711	298.909784198582	1016.311447693431	602.580636882277	359.011123976453	1032.898312212893	516.528475553815	352.870000370413	978.888701874126	444.402355293352	346.321330983604	852.378621113690	372.886161084904	293.379205071937	866.293414804750	245.327819700290	351.641582009338	875.392779713463	404.658008789258	568.830461082410	801.232112784855	302.323585769192	627.956790836149	840.408272463424	207.742731002994	562.855005669984	700.235077650431	44.946489847261	528.101792384470	872.760315464550	97.255682237335	566.557963353366	782.728715539546	37.054919867259	603.452033676734	991.203979311308	39.860428170310	596.004423604689	693.979676230918	138.751766039849	385.295005677043	762.007641426336	108.039273440956	306.727655927647	860.974766715867	141.614409142821	330.046167995146	963.827751390330	52.124994374141	305.571179005837	787.145443144850	1090.392658024414	228.954864200546	810.184846440092	830.724870451306	218.984886517492	978.610286935105	1102.376400338408	790.649588951055	1177.140101895576	934.628699294837	771.126255367070	
108	54.281000000000	676.883678355841	1024.446234715397	519.367731722114	870.577118956503	1440.124054035025	330.498627574825	979.043914030788	1360.158571897214	482.884756411984	914.889521710784	1438.257199664494	663.873886045580	885.391736942507	1499.333994367033	481.203346848074	905.110608051652	938.911481390167	618.109320223766	874.766082685055	969.499457447438	347.178678262687	927.662613342987	734.899293830825	583.008482916376	839.425866648731	634.198535099928	644.256484032335	906.271394547348	577.472358200617	558.358553110545	899.292986951413	490.788198437079	562.033844510289	955.208147721943	792.190052360867	376.454744365947	911.834893117553	665.716484988568	299.155083767409	1014.336259752784	603.648294267191	360.000202417971	1032.425726426505	519.435645889756	353.969240643227	982.376396211849	446.341190236894	346.696570004458	861.449444170079	367.288016270506	292.382668041334	883.104531767474	240.637687665118	350.596850602503	868.875514103793	404.303739335359	568.665810664460	794.824278666009	302.003226912292	628.044032386553	833.739782866828	207.440062369253	562.730311996317	693.555813723393	44.573352761443	528.135028221406	866.002398036575	97.148210687369	566.473148177598	776.050762538875	36.932288526679	603.538169764630	984.547059907457	39.982271137883	595.974484402441	718.220875199651	122.899616423528	382.648035395265	788.617463744192	97.242093637782	304.492437543387	884.831078896832	137.014232599372	328.724015362385	993.367626503302	54.814781280695	304.753415152056	778.916296191953	1091.443228883803	230.186050108615	790.249695818530	831.360758226619	221.209739471667	986.940027727993	1104.608904540283	790.318678427902	1193.567425408122	947.635136937024	767.943802714876	
109	54.294000000000	675.475122946796	1024.802753052972	520.294189560582	869.554532316118	1439.451777114311	330.404900884235	978.705302209050	1359.286967125506	482.200102889983	915.925786130169	1438.000141463306	663.443728975632	885.329101851264	1498.820520334888	480.913485896149	903.537273237489	938.216035450887	618.030464939640	872.624353769155	969.377328574173	347.161945740323	924.103835210076	733.898295177218	582.271175714511	835.412514947924	634.011109543967	644.418853633707	900.853404964135	576.731270763770	558.073014181036	893.143276108781	490.298065964273	561.845231674711	952.754141537678	792.361862709824	376.874704094219	909.562197726298	665.830596569323	299.298055838328	1011.374267369947	603.830312252240	361.154324587908	1030.885425435886	521.727849878771	355.251713354501	984.986667390568	447.996354366397	347.154755150169	870.411411099998	361.438197258034	291.335777697091	899.968792594642	236.241189384255	349.656903262944	862.705246049031	403.844805043069	568.501527282459	788.678851671945	301.631063125092	628.116737255129	827.204682839950	207.062196124041	562.588623136683	686.886982998927	44.218265513639	528.172351841073	859.241400727339	97.028937738767	566.363803135028	769.380362034108	36.814664215965	603.619979984813	977.897056742108	40.101955639615	595.935079774454	743.459245672740	107.447206351436	380.012245492718	816.109775653137	87.024975270619	302.420089364213	909.067204565573	133.045016948594	327.637212307529	1023.039050358766	58.604126445576	304.483398074375	770.681280508630	1092.645569346968	231.148416234507	771.433397355493	832.667482883308	223.441441361266	994.528981158097	1106.684233467502	789.744604625889	1208.743943430892	961.093372945843	764.308466307855	
